<?xml version="1.0" encoding="UTF-8" standalone="no"?>
<svg width="35px" height="35px" viewBox="0 0 35 35" version="1.1" xmlns="http://www.w3.org/2000/svg" xmlns:xlink="http://www.w3.org/1999/xlink" xmlns:sketch="http://www.bohemiancoding.com/sketch/ns">
    <!-- Generator: Sketch 3.3.2 (12043) - http://www.bohemiancoding.com/sketch -->
    <title>Your_Icon</title>
    <desc>Created with Sketch.</desc>
    <defs></defs>
    <g id="Page-1" stroke="none" stroke-width="1" fill="none" fill-rule="evenodd" sketch:type="MSPage">
        <g id="Your_Icon" sketch:type="MSLayerGroup" fill="#FFFFFF" opacity="0.75">
            <path d="M31.8836844,15.134829 L7.46915491,15.1077065 L16.8111896,3.90088119 C17.6486562,2.89306631 17.5111403,1.3913365 16.5052288,0.552918265 C16.0788822,0.196519142 15.5378598,0 14.9830382,0 C14.2740466,0 13.6074042,0.312622461 13.1548867,0.856024061 L0.550063265,15.9756264 C0.195091643,16.4024488 0,16.9434712 0,17.4982928 C0,18.0550178 0.196043309,18.596516 0.551014932,19.0214352 L13.153935,34.1391341 C13.6088317,34.6844391 14.2749982,34.9965857 14.9839898,34.9965857 C15.5388114,34.9965857 16.0798338,34.801494 16.5052288,34.4465224 C17.5125678,33.6052492 17.6500837,32.1025677 16.8102379,31.0952287 L7.45059741,19.8669909 L31.8789261,19.8936375 C33.1893709,19.8936375 34.2571408,18.8282468 34.2599958,17.5173262 C34.2618991,16.2064055 33.1969842,15.1372081 31.8836844,15.134829 L31.8836844,15.134829 Z" id="Shape" sketch:type="MSShapeGroup"></path>
        </g>
    </g>
</svg>