<?xml version="1.0" encoding="UTF-8" standalone="no"?>
<svg width="35px" height="35px" viewBox="0 0 35 35" version="1.1" xmlns="http://www.w3.org/2000/svg" xmlns:xlink="http://www.w3.org/1999/xlink" xmlns:sketch="http://www.bohemiancoding.com/sketch/ns">
    <!-- Generator: Sketch 3.3.2 (12043) - http://www.bohemiancoding.com/sketch -->
    <title>Your_Icon</title>
    <desc>Created with Sketch.</desc>
    <defs></defs>
    <g id="Page-1" stroke="none" stroke-width="1" fill="none" fill-rule="evenodd" sketch:type="MSPage">
        <g id="Your_Icon" sketch:type="MSLayerGroup" transform="translate(-1.000000, 0.000000)" fill="#FFFFFF" opacity="0.75">
            <path d="M34.7122889,15.9760417 L22.1079139,0.856527778 C21.6538861,0.312569444 20.9864555,0 20.2772194,0 C19.7225666,0 19.1824972,0.195416667 18.7561777,0.550763889 C17.7484694,1.39125 17.6118722,2.89479167 18.4513861,3.9025 L27.8119416,15.1316667 L3.38096941,15.1049306 C2.07089997,15.1049306 1.00242775,16.1709722 0.999997191,17.4815278 C0.998052747,18.7925694 2.0636083,19.8615278 3.37659441,19.8644444 L27.7939555,19.8911806 L18.4504139,31.0989583 C17.6128444,32.1066667 17.7499277,33.6092361 18.7561777,34.4477778 C19.1829833,34.8036111 19.724025,35 20.2786777,35 L20.2791639,35 C20.9874277,35 21.6538861,34.6874306 22.1074277,34.1434722 L34.7132611,19.0229861 C35.0686083,18.5961806 35.264025,18.0551389 35.264025,17.5 C35.2635389,16.9434028 35.0676361,16.4013889 34.7122889,15.9760417 L34.7122889,15.9760417 Z" id="Shape" sketch:type="MSShapeGroup"></path>
        </g>
    </g>
</svg>