<?xml version="1.0" encoding="UTF-8" standalone="no"?>
<svg width="88px" height="70px" viewBox="0 0 88 70" version="1.1" xmlns="http://www.w3.org/2000/svg" xmlns:xlink="http://www.w3.org/1999/xlink" xmlns:sketch="http://www.bohemiancoding.com/sketch/ns">
    <!-- Generator: Sketch 3.3.2 (12043) - http://www.bohemiancoding.com/sketch -->
    <title>cart</title>
    <desc>Created with Sketch.</desc>
    <defs></defs>
    <g id="Page-1" stroke="none" stroke-width="1" fill="none" fill-rule="evenodd" sketch:type="MSPage">
        <g id="cart" sketch:type="MSLayerGroup" fill="#000000">
            <path d="M75.406,41.562 L87.5,10.078 L17.12,10.078 L13.999,0 L0.5,0 L2.294,5.078 L10.511,5.078 L26.592,55.151 C23.123,55.8 20.492,58.838 20.492,62.509 C20.492,66.65 23.839,69.999 27.97,69.999 C32.103,69.999 35.456,66.649 35.456,62.509 C35.456,61.625 35.275,60.785 34.996,59.999 L55.89,59.999 C55.612,60.785 55.431,61.62 55.431,62.504 C55.431,66.645 58.782,69.999 62.917,69.999 C67.057,69.999 70.412,66.645 70.412,62.504 C70.412,58.495 67.276,55.258 63.331,55.038 C63.302,55.038 62.824,55.014 62.775,55.014 L31.628,55 L28.399,45 L75.406,41.562 L75.406,41.562 Z" id="Shape" sketch:type="MSShapeGroup"></path>
        </g>
    </g>
</svg>