<svg width="188" height="113" viewBox="0 0 188 113" xmlns="http://www.w3.org/2000/svg" xmlns:sketch="http://www.bohemiancoding.com/sketch/ns"><title>master-card</title><desc>Created with Sketch.</desc><g sketch:type="MSShapeGroup" fill="none"><path d="M131.089 112.043l2.889-.076 2.852-.207 2.796-.358 2.776-.492 2.7-.623 2.664-.756 2.606-.887 2.55-1.001 2.492-1.133 2.418-1.228 2.342-1.36 2.285-1.454 2.191-1.567 2.115-1.662 2.04-1.757 1.945-1.869 1.87-1.946 1.756-2.04 1.662-2.115 1.568-2.19 1.454-2.286 1.36-2.342 1.227-2.417 1.134-2.493 1.001-2.55.887-2.606.756-2.663.623-2.701.491-2.776.359-2.795.208-2.852.075-2.889-.075-2.871-.208-2.833-.359-2.795-.491-2.739-.623-2.701-.756-2.643-.887-2.607-1.001-2.531-1.134-2.474-1.227-2.417-1.36-2.323-1.454-2.285-1.568-2.191-1.662-2.097-1.756-2.039-1.87-1.945-1.945-1.852-2.04-1.756-2.115-1.662-2.191-1.567-2.285-1.455-2.342-1.341-2.418-1.227-2.492-1.133-2.55-1.001-2.606-.888-2.664-.755-2.7-.624-2.776-.491-2.796-.359-2.852-.207-2.889-.076-2.871.076-2.851.207-2.796.359-2.757.491-2.701.624-2.663.755-2.587.888-2.55 1.001-2.474 1.133-2.398 1.227-2.342 1.341-2.267 1.455-2.191 1.567-2.115 1.662-2.021 1.756-1.945 1.852-1.851 1.945-1.756 2.039-1.662 2.097-1.549 2.191-1.454 2.285-1.341 2.323-1.246 2.417-1.115 2.474-1.001 2.531-.868 2.607-.756 2.643-.623 2.701-.491 2.739-.359 2.795-.208 2.833-.075 2.871.075 2.889.208 2.852.359 2.795.491 2.776.623 2.701.756 2.663.868 2.606 1.001 2.55 1.115 2.493 1.246 2.417 1.341 2.342 1.454 2.286 1.549 2.19 1.662 2.115 1.756 2.04 1.851 1.946 1.945 1.869 2.021 1.757 2.115 1.662 2.191 1.567 2.267 1.454 2.342 1.36 2.398 1.228 2.474 1.133 2.55 1.001 2.587.887 2.663.756 2.701.623 2.757.492 2.796.358 2.851.207 2.871.076" fill="#F2AD3D"/><path d="M56.186 112.043l2.871-.076 2.852-.207 2.795-.358 2.757-.492 2.701-.623 2.663-.756 2.587-.887 2.55-1.001 2.474-1.133 2.399-1.228 2.342-1.36 2.266-1.454 2.191-1.567 2.115-1.662 2.021-1.757 1.945-1.869 1.851-1.946 1.756-2.04 1.662-2.115 1.549-2.19 1.454-2.286 1.341-2.342 1.247-2.417 1.114-2.493 1.001-2.55.869-2.606.755-2.663.623-2.701.491-2.776.359-2.795.208-2.852.076-2.889-.076-2.871-.208-2.833-.359-2.795-.491-2.739-.623-2.701-.755-2.643-.869-2.607-1.001-2.531-1.114-2.474-1.247-2.417-1.341-2.323-1.454-2.285-1.549-2.191-1.662-2.097-1.756-2.039-1.851-1.945-1.945-1.852-2.021-1.756-2.115-1.662-2.191-1.567-2.266-1.455-2.342-1.341-2.399-1.227-2.474-1.133-2.55-1.001-2.587-.888-2.663-.755-2.701-.624-2.757-.491-2.795-.359-2.852-.207-2.871-.076-2.889.076-2.852.207-2.795.359-2.777.491-2.7.624-2.663.755-2.606.888-2.55 1.001-2.493 1.133-2.418 1.227-2.341 1.341-2.286 1.455-2.191 1.567-2.115 1.662-2.04 1.756-1.945 1.852-1.87 1.945-1.756 2.039-1.662 2.097-1.567 2.191-1.455 2.285-1.36 2.323-1.227 2.417-1.133 2.474-1.001 2.531-.888 2.607-.755 2.643-.624 2.701-.491 2.739-.359 2.795-.207 2.833-.076 2.871.076 2.889.207 2.852.359 2.795.491 2.776.624 2.701.755 2.663.888 2.606 1.001 2.55 1.133 2.493 1.227 2.417 1.36 2.342 1.455 2.286 1.567 2.19 1.662 2.115 1.756 2.04 1.87 1.946 1.945 1.869 2.04 1.757 2.115 1.662 2.191 1.567 2.286 1.454 2.341 1.36 2.418 1.228 2.493 1.133 2.55 1.001 2.606.887 2.663.756 2.7.623 2.777.492 2.795.358 2.852.207 2.889.076" fill="#D82331"/><path d="M87.084 21.541h29.746v-3.041h-27.177l-2.569 3.041" fill="#F2AD3D"/><path d="M82.627 28.302h34.203v-3.04h-32.409l-1.794 3.04" fill="#F2AD3D"/><path d="M79.303 35.044h37.527v-3.041h-36.205l-1.322 3.041" fill="#F2AD3D"/><path d="M77.018 41.805h39.812v-3.04h-38.868l-.944 3.04" fill="#F2AD3D"/><path d="M78.34 74.479h38.584v-3.041h-39.528l.944 3.041" fill="#F2AD3D"/><path d="M81.192 81.24h35.732v-3.041h-37.149l1.417 3.041" fill="#F2AD3D"/><path d="M85.196 87.983h31.728v-3.041h-33.636l1.908 3.041" fill="#F2AD3D"/><path d="M90.71 94.744h26.214v-3.06h-28.877l2.663 3.06" fill="#F2AD3D"/><path d="M75.677 48.548h41.153v-3.041h-40.568l-.585 3.041" fill="#F2AD3D"/><path d="M100.758 67.736h15.694v-3.04h-15.128l-.566 3.04" fill="#F2AD3D"/><path d="M102.004 60.994h14.448v-3.06h-13.881l-.567 3.06" fill="#F2AD3D"/><path d="M74.638 57.934h4.08v3.06h-3.891l-.189-3.06" fill="#F2AD3D"/><path d="M67.027 54.252l-.264-.019-.265-.038-.245-.038-.246-.037-.226-.038-.246-.038-.246-.038-.264-.037-.264-.038-.302-.019-.34-.019-.359-.019h-.397l-.434.019-.491.038-.548.038-.378.056-.359.057-.321.113-.283.113-.265.132-.245.152-.189.189-.17.169-.113.208-.095.208-.037.227v.226l.056.246.076.245.151.246.189.245.377.359.454.284.529.245.566.208.605.189.623.207.623.227.604.246.567.32.529.397.472.472.397.586.302.717.189.85.075 1.02-.075 1.19-.133.888-.226.774-.302.718-.378.623-.434.548-.492.472-.528.415-.586.359-.604.283-.623.246-.643.189-.66.151-.643.113-.623.057-.623.038-.586.018h-.812l-.755-.018h-.661l-.623-.02-.567-.018-.51-.038-.453-.038-.435-.056-.396-.038-.359-.076-.359-.056-.321-.095-.321-.075-.302-.114-.303-.113-.32-.113.849-4.174.171.038.207.056.264.076.322.075.34.076.377.076.416.094.453.076.472.075.491.076.51.056.529.057.548.019.547.019h.548l.548-.019.548-.114.434-.151.34-.207.264-.265.189-.264.151-.302.095-.302.075-.284.038-.548-.17-.472-.321-.377-.472-.321-.567-.284-.661-.283-.737-.264-.736-.303-.755-.339-.718-.397-.661-.491-.604-.586-.473-.717-.34-.85-.17-1.02.019-1.209.095-.736.132-.699.189-.642.226-.605.303-.566.34-.491.396-.472.473-.416.547-.359.604-.302.68-.283.756-.208.85-.17.925-.132 1.02-.076 1.114-.019h.699l.642.019.586.019.528.019.473.038.434.038.378.037.34.038.321.038.264.057.246.038.226.037.189.038.17.019.17.038.151.019-.963 4.268" fill="#fff"/><path d="M67.027 54.252l-.264-.019-.265-.038-.245-.038-.246-.037-.226-.038-.246-.038-.246-.038-.264-.037-.264-.038-.302-.019-.34-.019-.359-.019h-.397l-.434.019-.491.038-.548.038-.378.056-.359.057-.321.113-.283.113-.265.132-.245.152-.189.189-.17.169-.113.208-.095.208-.037.227v.226l.056.246.076.245.151.246.189.245.377.359.454.284.529.245.566.208.605.189.623.207.623.227.604.246.567.32.529.397.472.472.397.586.302.717.189.85.075 1.02-.075 1.19-.133.888-.226.774-.302.718-.378.623-.434.548-.492.472-.528.415-.586.359-.604.283-.623.246-.643.189-.66.151-.643.113-.623.057-.623.038-.586.018h-.812l-.755-.018h-.661l-.623-.02-.567-.018-.51-.038-.453-.038-.435-.056-.396-.038-.359-.076-.359-.056-.321-.095-.321-.075-.302-.114-.303-.113-.32-.113.849-4.174.171.038.207.056.264.076.322.075.34.076.377.076.416.094.453.076.472.075.491.076.51.056.529.057.548.019.547.019h.548l.548-.019.548-.114.434-.151.34-.207.264-.265.189-.264.151-.302.095-.302.075-.284.038-.548-.17-.472-.321-.377-.472-.321-.567-.284-.661-.283-.737-.264-.736-.303-.755-.339-.718-.397-.661-.491-.604-.586-.473-.717-.34-.85-.17-1.02.019-1.209.095-.736.132-.699.189-.642.226-.605.303-.566.34-.491.396-.472.473-.416.547-.359.604-.302.68-.283.756-.208.85-.17.925-.132 1.02-.076 1.114-.019h.699l.642.019.586.019.528.019.473.038.434.038.378.037.34.038.321.038.264.057.246.038.226.037.189.038.17.019.17.038.151.019-.963 4.268" stroke="#fff" stroke-width=".216"/><path d="M71.503 45.319h5.232l-.775 4.57h3.154l-.68 4.268-3.324-.094-1.813 10.538-.019.378.095.321.189.246.245.207.34.133.378.113.415.075.453.038.416-.019.378-.038.34-.056.302-.076.245-.075.17-.057.114-.038.038-.018-.661 3.512-.133.095-.264.151-.132.075-.133.057-.15.057-.171.057-.169.056-.19.057-.188.038-.227.037-.226.038-.246.038-.283.038-.302.037-.322.038h-1.435l-.755-.057-.662-.075-.604-.113-.51-.132-.434-.171-.359-.188-.321-.227-.246-.246-.188-.264-.133-.321-.094-.321-.057-.359-.019-.397v-.415l.057-.434.057-.473 3.607-20.604" fill="#fff"/><path d="M71.503 45.319h5.232l-.775 4.57h3.154l-.68 4.268-3.324-.094-1.813 10.538-.019.378.095.321.189.246.245.207.34.133.378.113.415.075.453.038.416-.019.378-.038.34-.056.302-.076.245-.075.17-.057.114-.038.038-.018-.661 3.512-.133.095-.264.151-.132.075-.133.057-.15.057-.171.057-.169.056-.19.057-.188.038-.227.037-.226.038-.246.038-.283.038-.302.037-.322.038h-1.435l-.755-.057-.662-.075-.604-.113-.51-.132-.434-.171-.359-.188-.321-.227-.246-.246-.188-.264-.133-.321-.094-.321-.057-.359-.019-.397v-.415l.057-.434.057-.473 3.607-20.604" stroke="#fff" stroke-width=".216"/><path d="M83.288 61.277l-.057.322-.018.339.037.359.076.359.132.359.151.34.208.359.226.321.265.321.283.283.303.283.339.227.34.208.378.17.378.132.378.076.49.075.473.057.491.056.491.038.491.019h.51l.491-.019.51-.038.51-.075.509-.095.529-.113.51-.17.529-.208.548-.226.529-.302.547-.321-.755 4.645-.605.303-.302.113-.283.113-.283.095-.303.094-.301.076-.322.056-.34.057-.377.038-.397.038-.435.037-.49.019h-.51l-.586.019h-.623l-.926-.019-.944-.094-.944-.132-.945-.227-.925-.283-.888-.359-.849-.472-.794-.548-.736-.642-.642-.775-.548-.868-.453-1.001-.321-1.115-.208-1.265-.057-1.397.095-1.549.075-.604.114-.699.151-.737.207-.793.284-.812.34-.812.434-.831.529-.793.604-.756.737-.718.831-.642.944-.566 1.095-.472 1.228-.34 1.36-.227 1.53-.076.736.019.775.076.774.132.774.189.756.283.736.34.68.453.623.529.567.642.472.756.378.869.264 1.001.151 1.133.019 1.284-.132 1.435-.283 1.587-.095 1.152h-13.768l.869-3.721h8.272l.038-.472-.019-.453-.038-.416-.075-.377-.133-.359-.132-.321-.188-.284-.19-.264-.226-.227-.245-.189-.284-.169-.283-.151-.302-.114-.302-.075-.322-.057-.339-.038-.359.019-.34.057-.321.075-.322.114-.32.151-.284.17-.283.207-.246.227-.245.264-.227.284-.208.302-.169.321-.17.34-.133.378-.113.377-.076.397-.755 3.909" fill="#fff"/><path d="M83.288 61.277l-.057.322-.018.339.037.359.076.359.132.359.151.34.208.359.226.321.265.321.283.283.303.283.339.227.34.208.378.17.378.132.378.076.49.075.473.057.491.056.491.038.491.019h.51l.491-.019.51-.038.51-.075.509-.095.529-.113.51-.17.529-.208.548-.226.529-.302.547-.321-.755 4.645-.605.303-.302.113-.283.113-.283.095-.303.094-.301.076-.322.056-.34.057-.377.038-.397.038-.435.037-.49.019h-.51l-.586.019h-.623l-.926-.019-.944-.094-.944-.132-.945-.227-.925-.283-.888-.359-.849-.472-.794-.548-.736-.642-.642-.775-.548-.868-.453-1.001-.321-1.115-.208-1.265-.057-1.397.095-1.549.075-.604.114-.699.151-.737.207-.793.284-.812.34-.812.434-.831.529-.793.604-.756.737-.718.831-.642.944-.566 1.095-.472 1.228-.34 1.36-.227 1.53-.076.736.019.775.076.774.132.774.189.756.283.736.34.68.453.623.529.567.642.472.756.378.869.264 1.001.151 1.133.019 1.284-.132 1.435-.283 1.587-.095 1.152h-13.768l.869-3.721h8.272l.038-.472-.019-.453-.038-.416-.075-.377-.133-.359-.132-.321-.188-.284-.19-.264-.226-.227-.245-.189-.284-.169-.283-.151-.302-.114-.302-.075-.322-.057-.339-.038-.359.019-.34.057-.321.075-.322.114-.32.151-.284.17-.283.207-.246.227-.245.264-.227.284-.208.302-.169.321-.17.34-.133.378-.113.377-.076.397-.755 3.909" stroke="#fff" stroke-width=".216"/><path d="M128.332 51.022l-.246-.132-.245-.113-.265-.132-.283-.133-.283-.113-.321-.113-.322-.114-.339-.113-.359-.094-.359-.076-.397-.075-.396-.057-.435-.038-.434-.038h-1.398l-.491.038-.51.057-.528.094-.529.151-.529.208-.529.265-.529.339-.51.416-.491.491-.472.604-.453.699-.416.831-.396.944-.359 1.058-.302 1.209-.114.679-.075.661-.038.661.019.643.057.642.132.604.17.567.208.566.283.51.34.491.396.435.454.396.509.34.586.284.642.245.718.17.245.057.284.057.34.037.377.038.416.038h.906l.473-.038.491-.057.491-.094.472-.132.472-.151.472-.208.435-.246.396-.302.378-.34-.85 5.043-.114.094-.113.113-.151.133-.17.113-.208.151-.264.132-.302.132-.34.114-.434.132-.492.095-.566.075-.661.076-.737.037-.85.019-.963-.019-1.057-.056-.869-.095-.869-.188-.869-.284-.868-.378-.831-.453-.794-.566-.755-.661-.699-.756-.623-.85-.529-.944-.453-1.058-.34-1.152-.227-1.265-.075-1.341.037-1.473.208-1.568.151-.774.17-.756.189-.736.189-.699.208-.661.245-.661.246-.623.264-.586.284-.585.283-.548.321-.528.34-.492.34-.472.377-.453.378-.416.397-.396.434-.378.434-.359.454-.321.472-.302.51-.283.51-.246.529-.226.547-.208.586-.189.585-.151.605-.132.642-.114.642-.094.68-.076.68-.038.717-.018.605.018.585.038.567.057.566.076.529.075.51.113.491.095.454.113.434.114.378.113.358.113.303.113.264.095.227.076.17.075.113.038-.944 5.231" fill="#fff"/><path d="M128.332 51.022l-.246-.132-.245-.113-.265-.132-.283-.133-.283-.113-.321-.113-.322-.114-.339-.113-.359-.094-.359-.076-.397-.075-.396-.057-.435-.038-.434-.038h-1.398l-.491.038-.51.057-.528.094-.529.151-.529.208-.529.265-.529.339-.51.416-.491.491-.472.604-.453.699-.416.831-.396.944-.359 1.058-.302 1.209-.114.679-.075.661-.038.661.019.643.057.642.132.604.17.567.208.566.283.51.34.491.396.435.454.396.509.34.586.284.642.245.718.17.245.057.284.057.34.037.377.038.416.038h.906l.473-.038.491-.057.491-.094.472-.132.472-.151.472-.208.435-.246.396-.302.378-.34-.85 5.043-.114.094-.113.113-.151.133-.17.113-.208.151-.264.132-.302.132-.34.114-.434.132-.492.095-.566.075-.661.076-.737.037-.85.019-.963-.019-1.057-.056-.869-.095-.869-.188-.869-.284-.868-.378-.831-.453-.794-.566-.755-.661-.699-.756-.623-.85-.529-.944-.453-1.058-.34-1.152-.227-1.265-.075-1.341.037-1.473.208-1.568.151-.774.17-.756.189-.736.189-.699.208-.661.245-.661.246-.623.264-.586.284-.585.283-.548.321-.528.34-.492.34-.472.377-.453.378-.416.397-.396.434-.378.434-.359.454-.321.472-.302.51-.283.51-.246.529-.226.547-.208.586-.189.585-.151.605-.132.642-.114.642-.094.68-.076.68-.038.717-.018.605.018.585.038.567.057.566.076.529.075.51.113.491.095.454.113.434.114.378.113.358.113.303.113.264.095.227.076.17.075.113.038-.944 5.231" stroke="#fff" stroke-width=".216"/><path d="M174.829 70.116h-5.231l.378-2.096v-.189l-.303.377-.32.341-.322.302-.339.264-.341.246-.339.207-.34.171-.359.169-.359.133-.359.094-.359.094-.377.057-.378.057-.359.037-.378.02h-.378l-.981-.076-.907-.208-.831-.321-.756-.434-.68-.548-.604-.642-.529-.699-.453-.793-.378-.85-.302-.888-.208-.925-.151-.963-.056-.963.019-.983.094-.963.17-.963.283-1.114.34-1.058.397-.963.472-.906.491-.851.567-.755.585-.68.623-.623.662-.548.698-.472.718-.415.717-.321.756-.265.755-.17.756-.113.774-.038.548.019.529.057.491.094.453.132.435.151.377.17.378.208.34.208.302.226.283.246.246.246.226.245.189.245.17.246.151.227.114.226 1.322-7.422h5.137l-4.269 24.703" fill="#fff"/><path d="M174.829 70.116h-5.231l.378-2.096v-.189l-.303.377-.32.341-.322.302-.339.264-.341.246-.339.207-.34.171-.359.169-.359.133-.359.094-.359.094-.377.057-.378.057-.359.037-.378.02h-.378l-.981-.076-.907-.208-.831-.321-.756-.434-.68-.548-.604-.642-.529-.699-.453-.793-.378-.85-.302-.888-.208-.925-.151-.963-.056-.963.019-.983.094-.963.17-.963.283-1.114.34-1.058.397-.963.472-.906.491-.851.567-.755.585-.68.623-.623.662-.548.698-.472.718-.415.717-.321.756-.265.755-.17.756-.113.774-.038.548.019.529.057.491.094.453.132.435.151.377.17.378.208.34.208.302.226.283.246.246.246.226.245.189.245.17.246.151.227.114.226 1.322-7.422h5.137l-4.269 24.703" stroke="#fff" stroke-width=".216"/><path d="M166.274 65.546l.529-.038.491-.113.453-.133.435-.207.396-.227.378-.283.359-.321.321-.34.283-.378.264-.416.246-.434.208-.453.189-.472.151-.491.132-.51.094-.51.095-.529.056-.548v-.51l-.019-.528-.056-.492-.076-.472-.132-.453-.151-.434-.189-.378-.226-.359-.246-.302-.283-.265-.321-.226-.34-.151-.359-.095-.397-.038-.51.038-.471.076-.435.151-.435.189-.377.246-.378.302-.321.321-.321.358-.284.416-.264.434-.245.454-.208.491-.189.509-.151.51-.151.548-.113.548-.095.831.038.906.132.926.246.887.377.775.491.623.624.416.755.151" fill="#F2AD3D"/><path d="M50.294 65.923l-.756 4.193h-4.759l.132-.774.095-.699.075-.529.076-.283-.265.302-.302.302-.358.284-.397.264-.454.264-.472.227-.491.227-.51.189-.547.169-.548.133-.548.113-.566.075-.548.038-.548.019-.529-.057-.509-.075-.661-.17-.605-.189-.529-.245-.472-.284-.415-.302-.378-.34-.302-.359-.265-.377-.226-.397-.189-.416-.151-.415-.114-.415-.075-.435-.057-.434-.038-.416v-.415l.057-.737.113-.699.189-.661.246-.642.302-.604.34-.548.397-.529.453-.472.472-.434.529-.397.547-.358.567-.303.604-.264.624-.208.642-.17.661-.113h.038l.094-.019.133-.019.207-.019.227-.038.264-.018.283-.038.321-.038.322-.038.32-.038.341-.019.302-.037.302-.019.283-.019.265-.019h.642l.453.019.415.019h.416l.34.019.264.019.189.018h.057l.038-.132.113-.34.094-.396.038-.359-.075-.415-.17-.378-.227-.34-.302-.283-.359-.246-.397-.17-.453-.113-.491-.038-.529-.019-.566-.019h-.586l-.604.019-.623.038-.605.056-.604.057-.586.076-.566.075-.548.094-.491.095-.453.095-.416.113-.34.113-.264.132-.208.114 1.341-4.552.415-.17.416-.151.453-.132.907-.189.491-.075.491-.076.51-.038.529-.038.547-.019.567-.019h1.813l.661.019.661.019.529.038.567.095.585.132.604.17.586.226.566.265.567.321.529.359.472.415.415.453.378.51.283.567.189.604.114.642v.718l-.114.756-1.907 9.971" fill="#fff"/><path d="M50.294 65.923l-.756 4.193h-4.759l.132-.774.095-.699.075-.529.076-.283-.265.302-.302.302-.358.284-.397.264-.454.264-.472.227-.491.227-.51.189-.547.169-.548.133-.548.113-.566.075-.548.038-.548.019-.529-.057-.509-.075-.661-.17-.605-.189-.529-.245-.472-.284-.415-.302-.378-.34-.302-.359-.265-.377-.226-.397-.189-.416-.151-.415-.114-.415-.075-.435-.057-.434-.038-.416v-.415l.057-.737.113-.699.189-.661.246-.642.302-.604.34-.548.397-.529.453-.472.472-.434.529-.397.547-.358.567-.303.604-.264.624-.208.642-.17.661-.113h.038l.094-.019.133-.019.207-.019.227-.038.264-.018.283-.038.321-.038.322-.038.32-.038.341-.019.302-.037.302-.019.283-.019.265-.019h.642l.453.019.415.019h.416l.34.019.264.019.189.018h.057l.038-.132.113-.34.094-.396.038-.359-.075-.415-.17-.378-.227-.34-.302-.283-.359-.246-.397-.17-.453-.113-.491-.038-.529-.019-.566-.019h-.586l-.604.019-.623.038-.605.056-.604.057-.586.076-.566.075-.548.094-.491.095-.453.095-.416.113-.34.113-.264.132-.208.114 1.341-4.552.415-.17.416-.151.453-.132.907-.189.491-.075.491-.076.51-.038.529-.038.547-.019.567-.019h1.813l.661.019.661.019.529.038.567.095.585.132.604.17.586.226.566.265.567.321.529.359.472.415.415.453.378.51.283.567.189.604.114.642v.718l-.114.756-1.907 9.971" stroke="#fff" stroke-width=".216"/><path d="M45.742 60.994l-.019-.094-.075-.095-.114-.057-.188-.037-.208-.038-.246-.019h-.566l-.302.019-.322.038-.302.037-.302.038-.283.038-.265.057-.226.057-.208.056-.132.038-.151.057-.208.075-.208.094-.245.114-.246.132-.264.132-.246.151-.264.189-.245.189-.227.227-.208.226-.189.246-.132.264-.113.302-.057.302-.019.643.094.51.189.377.246.284.283.189.322.113.301.056.303.019.566-.019.51-.056.491-.076.434-.113.378-.132.359-.17.321-.17.284-.208.245-.189.227-.226.189-.208.151-.227.132-.226.113-.227.095-.208.056-.208.151-.547.132-.623.114-.605.094-.491" fill="#D82331"/><path d="M10.557 70.116h-5.137l4.287-24.797h8.933l.85 14.712 6.176-14.712h9.33l-4.382 24.797h-5.137l3.249-18.527h-.208l-7.687 18.527h-5.798l-.038-.774-.132-2.059-.17-2.927-.377-6.743-.17-2.965-.133-2.153-.038-.906h-.283l-3.135 18.527" fill="#fff"/><path d="M10.557 70.116h-5.137l4.287-24.797h8.933l.85 14.712 6.176-14.712h9.33l-4.382 24.797h-5.137l3.249-18.527h-.208l-7.687 18.527h-5.798l-.038-.774-.132-2.059-.17-2.927-.377-6.743-.17-2.965-.133-2.153-.038-.906h-.283l-3.135 18.527" stroke="#fff" stroke-width=".216"/><path d="M144.026 65.923l-.774 4.193h-4.74l.037-.774.019-.68v-.51l.038-.227-.246.283-.283.284-.34.264-.378.265-.396.245-.454.227-.472.227-.472.188-.51.151-.528.151-.53.095-.528.075-.548.038-.529.019-.51-.057-.51-.075-.68-.17-.604-.189-.529-.245-.491-.284-.415-.302-.359-.34-.302-.359-.265-.377-.226-.397-.17-.416-.151-.415-.095-.415-.075-.435-.057-.434-.038-.416v-.415l.038-.737.113-.699.17-.661.246-.642.283-.604.359-.548.396-.529.435-.472.491-.434.51-.397.547-.358.586-.303.585-.264.624-.208.623-.17.642-.113h.038l.094-.019.132-.019.189-.019.246-.038.265-.018.283-.038.302-.038.321-.038.34-.038.321-.019.321-.037.302-.019.265-.019.264-.019h.661l.453.019.435.019h.415l.359.019.302.019.171.018h.075l.037-.132.057-.34.057-.396.037-.359-.075-.415-.151-.378-.246-.34-.283-.283-.34-.246-.396-.17-.416-.113-.453-.038-.529-.019-.567-.019h-.585l-.605.019-.623.038-.604.056-.605.057-.585.076-.567.075-.547.094-.491.095-.453.095-.416.113-.34.113-.264.132-.208.114 1.322-4.552.415-.17.435-.151.434-.132.453-.095.473-.094.472-.075.491-.076.51-.038.529-.038.547-.019.548-.019h1.775l.642.019.642.019.529.038.567.095.585.132.605.17.585.226.586.265.566.321.529.359.472.415.434.453.378.51.284.567.207.604.133.642v.718l-.095.756-1.983 9.971" fill="#fff"/><path d="M143.252 70.248l.113-.113.774-4.193-.226-.038-.775 4.193.114-.113v.264l.094-.019.019-.094-.113.113" fill="#fff"/><path fill="#fff" d="M138.398 70.116l.114.132h4.74v-.264h-4.74l.112.132h-.226l-.019.132h.133l-.114-.132"/><path fill="#fff" d="M138.7 68.001l-.17-.151-.075.302-.019.51v.68l-.038.774h.226l.038-.774.038-.68-.019-.51v-.151l-.169-.151.188.151"/><path d="M131.353 70.418l.529.076.51.057.529-.019.548-.038.547-.076.529-.094.529-.152.529-.15.472-.189.491-.227.453-.226.397-.265.397-.264.339-.265.303-.302.245-.283-.188-.151-.246.283-.265.264-.339.265-.359.264-.397.227-.907.453-.472.189-.491.151-.529.151-.529.095-.509.075-.548.038-.529.019-.51-.057-.491-.075-.038.226" fill="#fff"/><path d="M126.783 64.696l.019.415.038.416.056.453.076.434.094.416.151.434.17.435.246.396.264.397.302.359.378.359.435.302.491.302.547.245.624.189.679.17.038-.226-.68-.17-.585-.189-.51-.246-.491-.264-.397-.302-.34-.321-.302-.359-.264-.359-.208-.397-.17-.396-.151-.397-.094-.415-.076-.435-.057-.415-.037-.416.018-.415h-.264" fill="#fff"/><path d="M133.563 57.444l-.661.113-.642.17-.623.207-.605.265-.585.302-.567.378-.51.397-.491.453-.453.472-.397.529-.377.566-.284.623-.245.643-.17.68-.113.717-.057.737h.264l.019-.737.114-.68.17-.642.245-.642.283-.586.34-.528.397-.529.415-.472.492-.416.509-.396.529-.34.586-.303.566-.264.624-.208.604-.17.623-.113v-.226" fill="#fff"/><path d="M137.454 57.047h-.208l-.264.038-.265.019-.302.018-.321.038-.321.019-.34.038-.321.038-.302.037-.283.038-.265.019-.246.038-.189.019-.151.019-.075.019h-.038v.226h.038l.113-.019.113-.019.189-.019.246-.037.265-.019.283-.038.302-.038.321-.037.34-.038.321-.019.321-.038.302-.019.265-.019h.472v-.264" fill="#fff"/><path fill="#fff" d="M140.003 57.255l.114-.095h-.075l-.171-.019-.302-.019-.359-.037h-.85l-.453-.038h-.453v.264h.906l.435.038h.774l.302.019.171.019h.075l.113-.095-.113.095.094.019.019-.114-.227-.037"/><path fill="#fff" d="M140.192 56.046h-.019l-.019.359-.056.378-.056.339-.039.133.227.037.038-.132.056-.34.057-.415.057-.359h-.246"/><path d="M137.945 54.176v.019l.434.019.397.113.377.17.322.227.264.264.227.321.151.34.075.397h.227l-.076-.434-.151-.416-.264-.359-.302-.302-.359-.264-.416-.17-.434-.114-.472-.056v.245" fill="#fff"/><path d="M129.842 55.083l.189.113.189-.094.246-.133.321-.113.415-.113.453-.095.492-.094.547-.094.548-.076.585-.076.605-.056.604-.057.623-.038h1.757l.529.019v-.226l-.529-.019-.567-.038h-.585l-.605.038-.623.038-.604.056-.605.057-.585.075-.585.076-.548.094-.491.095-.453.094-.416.114-.359.113-.283.132-.227.132.189.114-.227-.038" fill="#fff"/><path d="M131.24 50.437l-.075.094-1.323 4.552.227.038 1.322-4.552-.075.094-.076-.226-.056.019-.019.075.075-.094" fill="#fff"/><path d="M139.644 49.568l-.642-.038-.642-.019h-1.775l-.548.038-.547.019-.529.038-.51.037-.51.076-.472.076-.472.094-.454.095-.453.132-.435.151-.415.17.076.226.415-.169.434-.152.416-.132.453-.094.473-.095.471-.075.473-.076.51-.037.529-.038.547-.019h2.323l.642.019h.642v-.227" fill="#fff"/><path d="M146.122 55.97l.095-.774v-.718l-.132-.661-.208-.623-.302-.585-.378-.529-.453-.472-.472-.416-.548-.359-.567-.339-.604-.265-.586-.227-.623-.169-.585-.133-.586-.094-.529-.038v.227l.529.038.548.094.585.132.586.17.586.227.566.264.567.302.51.359.472.416.415.434.378.491.264.548.208.585.132.623v.718l-.094.737.226.037" fill="#fff"/><path d="M144.139 65.942l1.983-9.972-.226-.037-1.983 9.971.226.038" fill="#fff"/><path d="M139.456 60.994l-.038-.113-.076-.095-.132-.056-.189-.057-.207-.019-.246-.019h-.283l-.284.019-.301.038-.303.038-.302.037-.284.038-.283.057-.245.038-.246.056-.189.038-.132.019-.151.057-.188.056-.209.076-.245.113-.227.113-.264.133-.491.34-.246.207-.207.208-.208.246-.17.264-.132.283-.114.303-.056.32-.019.643.094.51.151.377.227.284.283.189.321.113.321.056.321.019.567-.019.529-.056.491-.095.434-.132.416-.151.359-.17.34-.189.302-.226.264-.208.227-.246.207-.226.171-.246.132-.227.094-.226.076-.227.056-.207.076-.529.094-.548.076-.529.038-.472" fill="#F2AD3D"/><path d="M145.443 70.116h5.325l1.908-10.746.075-.416.227-.831.151-.415.189-.416.227-.396.245-.378.303-.359.339-.321.378-.302.435-.283.491-.227.547-.189.605-.151.661-.113.736-.038h.472l.85-4.854-.529.038-.51.057-.472.094-.453.132-.415.151-.397.189-.378.208-.359.227-.339.264-.322.265-.604.604-.283.321-.283.359-.284.34-.264.377.567-3.418h-5.308l-3.531 20.227" fill="#fff"/><path d="M145.443 70.116h5.325l1.908-10.746.075-.416.227-.831.151-.415.189-.416.227-.396.245-.378.303-.359.339-.321.378-.302.435-.283.491-.227.547-.189.605-.151.661-.113.736-.038h.472l.85-4.854-.529.038-.51.057-.472.094-.453.132-.415.151-.397.189-.378.208-.359.227-.339.264-.322.265-.604.604-.283.321-.283.359-.284.34-.264.377.567-3.418h-5.308l-3.531 20.227" stroke="#fff" stroke-width=".216"/><path d="M95.432 70.116h5.42l1.813-10.746.076-.416.094-.396.095-.397.132-.378.151-.377.189-.359.227-.34.264-.321.302-.284.34-.283.416-.226.453-.208.528-.17.586-.151.642-.095.737-.056h.056l.076.019.094.018h.095l.094.019.076.019.056.019h.019l.019-.075.057-.227.075-.34.095-.415.132-.491.132-.529.17-.529.17-.529.151-.359.378-.717.189-.321.17-.284.132-.226.094-.132.038-.057h-.019l-.075-.019-.095-.019-.132-.019h-.132l-.151-.019-.132-.019h-.132l-.586.038-.529.057-.491.094-.453.114-.435.151-.396.188-.359.189-.34.227-.321.245-.302.284-.283.283-.284.321-.283.321-.264.359-.567.755.68-3.418h-5.42l-3.532 20.227" fill="#fff"/><path d="M95.432 70.116h5.42l1.813-10.746.076-.416.094-.396.095-.397.132-.378.151-.377.189-.359.227-.34.264-.321.302-.284.34-.283.416-.226.453-.208.528-.17.586-.151.642-.095.737-.056h.056l.076.019.094.018h.095l.094.019.076.019.056.019h.019l.019-.075.057-.227.075-.34.095-.415.132-.491.132-.529.17-.529.17-.529.151-.359.378-.717.189-.321.17-.284.132-.226.094-.132.038-.057h-.019l-.075-.019-.095-.019-.132-.019h-.132l-.151-.019-.132-.019h-.132l-.586.038-.529.057-.491.094-.453.114-.435.151-.396.188-.359.189-.34.227-.321.245-.302.284-.283.283-.284.321-.283.321-.264.359-.567.755.68-3.418h-5.42l-3.532 20.227" stroke="#fff" stroke-width=".216"/></g></svg>