<?xml version="1.0" encoding="UTF-8" standalone="no"?>
<svg width="143px" height="37px" viewBox="0 0 143 37" version="1.1" xmlns="http://www.w3.org/2000/svg" xmlns:xlink="http://www.w3.org/1999/xlink" xmlns:sketch="http://www.bohemiancoding.com/sketch/ns">
    <!-- Generator: Sketch 3.2.2 (9983) - http://www.bohemiancoding.com/sketch -->
    <title>paypal_rgb</title>
    <desc>Created with Sketch.</desc>
    <defs>
        <path id="path-1" d="M0,0.848 L142.531,0.848 L142.531,36.94 L0,36.94"></path>
        <path id="path-3" d="M0,0.848 L142.531,0.848 L142.531,36.94 L0,36.94"></path>
    </defs>
    <g id="Page-1" stroke="none" stroke-width="1" fill="none" fill-rule="evenodd" sketch:type="MSPage">
        <g id="paypal_rgb" sketch:type="MSLayerGroup">
            <g id="Group-3">
                <mask id="mask-2" sketch:name="Clip 2" fill="white">
                    <use xlink:href="#path-1"></use>
                </mask>
                <g id="Clip-2"></g>
                <path d="M26.085,3.574 C24.411,1.666 21.385,0.848 17.514,0.848 L6.279,0.848 C5.487,0.848 4.814,1.424 4.69,2.205 L0.012,31.874 C-0.081,32.459 0.372,32.989 0.965,32.989 L7.901,32.989 L9.643,21.94 L9.589,22.286 C9.713,21.505 10.381,20.929 11.172,20.929 L14.468,20.929 C20.943,20.929 26.013,18.299 27.494,10.691 C27.538,10.466 27.576,10.247 27.609,10.033 C27.422,9.934 27.422,9.934 27.609,10.033 C28.05,7.221 27.606,5.307 26.085,3.574" id="Fill-1" fill="#27346A" sketch:type="MSShapeGroup" mask="url(#mask-2)"></path>
            </g>
            <path d="M110.998,17.692 C110.574,20.476 108.448,20.476 106.391,20.476 L105.221,20.476 L106.042,15.278 C106.091,14.964 106.362,14.733 106.68,14.733 L107.217,14.733 C108.617,14.733 109.939,14.733 110.621,15.53 C111.029,16.007 111.152,16.715 110.998,17.692 M110.103,10.428 L102.347,10.428 C101.816,10.428 101.365,10.814 101.282,11.338 L98.146,31.226 C98.084,31.618 98.388,31.973 98.784,31.973 L102.764,31.973 C103.135,31.973 103.451,31.703 103.509,31.337 L104.399,25.698 C104.481,25.174 104.933,24.788 105.463,24.788 L107.917,24.788 C113.026,24.788 115.975,22.316 116.745,17.415 C117.092,15.273 116.759,13.589 115.756,12.41 C114.653,11.114 112.698,10.428 110.103,10.428" id="Fill-4" fill="#2790C3" sketch:type="MSShapeGroup"></path>
            <path d="M55.678,17.692 C55.254,20.476 53.128,20.476 51.071,20.476 L49.901,20.476 L50.722,15.278 C50.771,14.964 51.042,14.733 51.36,14.733 L51.897,14.733 C53.297,14.733 54.619,14.733 55.301,15.53 C55.709,16.007 55.832,16.715 55.678,17.692 M54.783,10.428 L47.027,10.428 C46.496,10.428 46.045,10.814 45.962,11.338 L42.826,31.226 C42.764,31.618 43.067,31.973 43.464,31.973 L47.168,31.973 C47.698,31.973 48.149,31.587 48.232,31.064 L49.079,25.698 C49.161,25.174 49.613,24.788 50.143,24.788 L52.597,24.788 C57.706,24.788 60.655,22.316 61.425,17.415 C61.772,15.273 61.439,13.589 60.436,12.41 C59.333,11.114 57.378,10.428 54.783,10.428" id="Fill-5" fill="#27346A" sketch:type="MSShapeGroup"></path>
            <path d="M72.789,24.832 C72.43,26.954 70.746,28.379 68.597,28.379 C67.52,28.379 66.657,28.032 66.103,27.376 C65.554,26.726 65.347,25.799 65.521,24.768 C65.855,22.664 67.567,21.194 69.683,21.194 C70.738,21.194 71.594,21.544 72.159,22.206 C72.728,22.873 72.952,23.805 72.789,24.832 M77.965,17.603 L74.251,17.603 C73.933,17.603 73.662,17.834 73.612,18.149 L73.449,19.187 L73.19,18.811 C72.385,17.644 70.592,17.253 68.802,17.253 C64.699,17.253 61.194,20.363 60.512,24.724 C60.157,26.9 60.661,28.979 61.895,30.43 C63.028,31.763 64.645,32.318 66.572,32.318 C69.88,32.318 71.714,30.194 71.714,30.194 L71.548,31.226 C71.486,31.618 71.789,31.973 72.187,31.973 L75.531,31.973 C76.062,31.973 76.513,31.588 76.596,31.064 L78.604,18.35 C78.666,17.958 78.362,17.603 77.965,17.603" id="Fill-6" fill="#27346A" sketch:type="MSShapeGroup"></path>
            <g id="Group-14">
                <mask id="mask-4" sketch:name="Clip 8" fill="white">
                    <use xlink:href="#path-3"></use>
                </mask>
                <g id="Clip-8"></g>
                <path d="M128.109,24.832 C127.75,26.954 126.066,28.379 123.917,28.379 C122.84,28.379 121.977,28.032 121.423,27.376 C120.873,26.726 120.667,25.799 120.841,24.768 C121.175,22.664 122.887,21.194 125.003,21.194 C126.058,21.194 126.914,21.544 127.479,22.206 C128.048,22.873 128.272,23.805 128.109,24.832 M133.285,17.603 L129.571,17.603 C129.253,17.603 128.982,17.834 128.932,18.149 L128.769,19.187 L128.509,18.811 C127.705,17.644 125.912,17.253 124.122,17.253 C120.019,17.253 116.514,20.363 115.832,24.724 C115.477,26.9 115.981,28.979 117.215,30.43 C118.348,31.763 119.965,32.318 121.892,32.318 C125.2,32.318 127.034,30.194 127.034,30.194 L126.868,31.226 C126.806,31.618 127.109,31.973 127.507,31.973 L130.851,31.973 C131.382,31.973 131.833,31.588 131.916,31.064 L133.924,18.35 C133.986,17.958 133.682,17.603 133.285,17.603" id="Fill-7" fill="#2790C3" sketch:type="MSShapeGroup" mask="url(#mask-4)"></path>
                <path d="M97.746,17.603 L94.013,17.603 C93.656,17.603 93.322,17.78 93.122,18.076 L87.972,25.66 L85.79,18.372 C85.653,17.916 85.233,17.603 84.757,17.603 L81.088,17.603 C80.645,17.603 80.333,18.039 80.476,18.458 L84.586,30.524 L80.72,35.979 C80.417,36.407 80.723,36.999 81.248,36.999 L84.977,36.999 C85.33,36.999 85.661,36.826 85.863,36.536 L98.277,18.618 C98.574,18.189 98.268,17.603 97.746,17.603" id="Fill-9" fill="#27346A" sketch:type="MSShapeGroup" mask="url(#mask-4)"></path>
                <path d="M137.662,10.975 L134.479,31.227 C134.417,31.619 134.72,31.974 135.117,31.974 L138.319,31.974 C138.849,31.974 139.301,31.588 139.383,31.064 L142.522,11.176 C142.584,10.784 142.281,10.429 141.883,10.429 L138.301,10.429 C137.982,10.429 137.711,10.66 137.662,10.975" id="Fill-10" fill="#2790C3" sketch:type="MSShapeGroup" mask="url(#mask-4)"></path>
                <path d="M26.085,3.574 C24.411,1.666 21.385,0.848 17.514,0.848 L6.279,0.848 C5.487,0.848 4.814,1.424 4.69,2.205 L0.012,31.874 C-0.081,32.459 0.372,32.989 0.965,32.989 L7.901,32.989 L9.643,21.94 L9.589,22.286 C9.713,21.505 10.381,20.929 11.172,20.929 L14.468,20.929 C20.943,20.929 26.013,18.299 27.494,10.691 C27.538,10.466 27.576,10.247 27.609,10.033 C27.422,9.934 27.422,9.934 27.609,10.033 C28.05,7.221 27.606,5.307 26.085,3.574" id="Fill-11" fill="#27346A" sketch:type="MSShapeGroup" mask="url(#mask-4)"></path>
                <path d="M11.515,10.07 C11.589,9.6 11.891,9.215 12.297,9.02 C12.482,8.932 12.688,8.883 12.904,8.883 L21.712,8.883 C22.755,8.883 23.728,8.951 24.617,9.094 C24.872,9.135 25.119,9.182 25.359,9.236 C25.599,9.289 25.832,9.349 26.058,9.415 C26.171,9.448 26.282,9.482 26.391,9.518 C26.828,9.664 27.235,9.834 27.609,10.033 C28.05,7.22 27.606,5.307 26.085,3.574 C24.41,1.666 21.385,0.848 17.514,0.848 L6.278,0.848 C5.487,0.848 4.814,1.424 4.69,2.205 L0.012,31.873 C-0.081,32.459 0.372,32.988 0.964,32.988 L7.901,32.988 L11.515,10.07" id="Fill-12" fill="#27346A" sketch:type="MSShapeGroup" mask="url(#mask-4)"></path>
                <path d="M27.609,10.033 L27.609,10.033 C27.575,10.248 27.538,10.466 27.494,10.691 C26.013,18.298 20.943,20.929 14.468,20.929 L11.171,20.929 C10.38,20.929 9.712,21.505 9.589,22.286 L7.422,36.024 C7.341,36.536 7.737,37 8.255,37 L14.102,37 C14.794,37 15.383,36.496 15.491,35.813 L15.548,35.515 L16.65,28.531 L16.721,28.145 C16.829,27.462 17.418,26.958 18.11,26.958 L18.985,26.958 C24.649,26.958 29.084,24.657 30.38,18.002 C30.921,15.221 30.641,12.899 29.21,11.268 C28.776,10.774 28.237,10.366 27.609,10.033" id="Fill-13" fill="#2790C3" sketch:type="MSShapeGroup" mask="url(#mask-4)"></path>
            </g>
            <path d="M26.059,9.415 C25.833,9.349 25.6,9.289 25.36,9.236 C25.12,9.183 24.872,9.136 24.618,9.095 C23.728,8.951 22.756,8.883 21.712,8.883 L12.905,8.883 C12.688,8.883 12.482,8.932 12.298,9.021 C11.891,9.216 11.59,9.6 11.516,10.071 L9.644,21.94 L9.59,22.286 C9.713,21.505 10.381,20.929 11.172,20.929 L14.469,20.929 C20.944,20.929 26.014,18.299 27.495,10.691 C27.539,10.466 27.576,10.248 27.61,10.033 C27.235,9.835 26.829,9.664 26.392,9.519 C26.283,9.483 26.172,9.448 26.059,9.415" id="Fill-15" fill="#1F264F" sketch:type="MSShapeGroup"></path>
        </g>
    </g>
</svg>