<svg width="462" height="151" viewBox="0 0 462 151" xmlns="http://www.w3.org/2000/svg" xmlns:sketch="http://www.bohemiancoding.com/sketch/ns"><title>1421292417_visa</title><desc>Created with Sketch.</desc><g sketch:type="MSLayerGroup" fill="none"><path d="M186.328 3.445l-23.465 144.208h37.542l23.468-144.208h-37.545zm-55.052 0l-35.794 99.185-4.234-21.358.003.007-.933-4.787c-4.332-9.336-14.365-27.08-33.31-42.223-5.601-4.476-11.247-8.296-16.705-11.559l32.531 124.943h39.116l59.733-144.208h-40.407zm146.521 40.035c0-16.304 36.563-14.209 52.629-5.356l5.357-30.972s-16.534-6.288-33.768-6.288c-18.632 0-62.875 8.148-62.875 47.739 0 37.26 51.928 37.723 51.928 57.285 0 19.562-46.574 16.066-61.944 3.726l-5.586 32.373s16.763 8.148 42.382 8.148c25.616 0 64.272-13.271 64.272-49.37 0-37.493-52.395-40.985-52.395-57.285zm153.2-40.035h-30.185c-13.938 0-17.332 10.747-17.332 10.747l-55.988 133.461h39.131l7.828-21.419h47.728l4.403 21.419h34.472l-30.057-144.208zm-45.727 93.196l19.728-53.966 11.098 53.966h-30.826z" id="Shape" fill="#005BAC" sketch:type="MSShapeGroup"/><path d="M79.132 17.022s-1.554-13.015-18.144-13.015h-60.273l-.706 2.446s28.972 5.906 56.767 28.033c26.562 21.148 35.227 47.51 35.227 47.51l-12.871-64.974z" fill="#F6AC1D" sketch:type="MSShapeGroup"/></g></svg>